<svg xmlns="http://www.w3.org/2000/svg" version="1.1" xmlns:xlink="http://www.w3.org/1999/xlink" xmlns:svgjs="http://svgjs.dev/svgjs" width="100%" height="100%" viewBox="0 0 1000 600"><rect width="1000" height="600" x="0" y="0" fill="#1b1f24"/><g><rect width="333.3333333333333" height="333.3333333333333" rx="13.333333333333334" ry="13.333333333333334" y="226.5489978761226" fill="#ffffff" transform="matrix(0.6117651275954463,0,0,0.6117651275954463,0,59.44436188215667)" x="204.3267822265625"/><path d="M361.8977683755786 334.31574810632463L314.74345265328503 334.31574810632463L314.74345265328503 318.2156718998064L427.2434513418918 318.2156718998064L427.2434513418918 334.31574810632463L380.06048779716673 334.31574810632463L380.06048779716673 468.2156701512821L361.8977683755786 468.2156701512821L361.8977683755786 334.31574810632463Z " fill="#1b1f24" transform="matrix(0.6117651275954463,0,0,0.6117651275954463,0,59.44436188215667)"/><path d="M640.8584617278207 465.9719642974266L624.3316466048075 465.9719642974266L624.3316466048075 358.52030372114706L640.8584617278207 358.52030372114706L640.8584617278207 465.9719642974266ZM632.7318655497827 340.59801248675365L632.7318655497827 340.59801248675365Q627.9161048516861 340.59801248675365 624.4410957115823 337.31453928350595Q620.9934488481722 334.0310660802583 620.9934488481722 329.4068413190179L620.9934488481722 329.4068413190179Q620.9934488481722 324.7826165577774 624.4410957115823 321.4991433545298Q627.9161048516861 318.2156701512821 632.7318655497827 318.2156701512821L632.7318655497827 318.2156701512821Q637.574988524573 318.2156701512821 641.022635387983 321.4991433545298Q644.4976445280868 324.7826165577774 644.4976445280868 329.4068413190179L644.4976445280868 329.4068413190179Q644.4976445280868 334.0310660802583 641.022635387983 337.31453928350595Q637.574988524573 340.59801248675365 632.7318655497827 340.59801248675365ZM687.5932303207122 465.9719642974266L671.066415197699 465.9719642974266L671.066415197699 358.52030372114706L687.0186225101439 358.52030372114706L687.0186225101439 375.2933793344039L688.4140986215241 375.2933793344039Q691.7796586548529 366.7016244525725 699.2769224689351 361.91322603116964Q706.7468240063235 357.12482760976684 717.2539382567161 357.12482760976684L717.2539382567161 357.12482760976684Q727.8705016138834 357.12482760976684 734.9846935542535 361.91322603116964Q742.0715232179296 366.7016244525725 746.0664156152143 375.2933793344039L746.0664156152143 375.2933793344039L747.1882689596572 375.2933793344039Q751.3199727404105 366.9752472195098 759.583380301917 362.0500374146383Q767.81942558673 357.12482760976684 779.3663063514842 357.12482760976684L779.3663063514842 357.12482760976684Q793.7862261690802 357.12482760976684 802.9525888614799 366.0996543653104Q812.1189515538796 375.1018433975477 812.1189515538796 394.06390114630295L812.1189515538796 394.06390114630295L812.1189515538796 465.9719642974266L795.5921364308664 465.9719642974266L795.5921364308664 394.06390114630295Q795.5921364308664 382.1613107845302 789.1072768544523 377.0445650428026Q782.5950550013445 371.9551815777687 773.7844019059633 371.9551815777687L773.7844019059633 371.9551815777687Q762.4290570780651 371.9551815777687 756.2178202685883 378.7683884745076Q749.9792211824177 385.5815953712465 749.9792211824177 396.0066227915578L749.9792211824177 396.0066227915578L749.9792211824177 465.9719642974266L733.206145569161 465.9719642974266L733.206145569161 392.3674399912917Q733.206145569161 383.20107729889196 727.2411692499277 377.5644482999835Q721.3035552073882 371.9551815777687 711.9182943014387 371.9551815777687L711.9182943014387 371.9551815777687Q705.488159278412 371.9551815777687 699.9336171095847 375.37546616448503Q694.3790749407574 378.79575075120135 690.9861526307348 384.8428139005158Q687.5932303207122 390.91723932652394 687.5932303207122 398.79757501431834L687.5932303207122 398.79757501431834L687.5932303207122 465.9719642974266ZM888.7880508497124 465.9719642974266L888.7880508497124 465.9719642974266L844.570611712644 465.9719642974266L844.570611712644 322.7030835290539L890.7581347716609 322.7030835290539Q911.6081896122836 322.7030835290539 926.4385435802856 331.26747613419155Q941.2688975482874 339.83186873932914 949.1765955127755 355.8114383284678Q957.0842934772636 371.8183701943001 957.0842934772636 394.06390114630295L957.0842934772636 394.06390114630295Q957.0842934772636 416.44624348177445 949.0945086826944 432.5626244543817Q941.1320861648187 448.67900542698897 925.8639357697172 457.3254848622078Q910.6231476513093 465.9719642974266 888.7880508497124 465.9719642974266ZM861.918295136469 338.0806830309304L861.918295136469 450.5670025188564L887.6661975052695 450.5670025188564Q905.4516773561943 450.5670025188564 917.1353695044172 443.72643334542374Q928.8190616526401 436.8585018952974 934.5377774816297 424.2171300627939Q940.2838555873132 411.5483959535967 940.2838555873132 394.06390114630295L940.2838555873132 394.06390114630295Q940.2838555873132 376.6888554457841 934.6198643117109 364.1569327200556Q928.9558730361086 351.59764771763327 917.6826150382917 344.83916537428183Q906.4093570404748 338.0806830309304 889.636281427218 338.0806830309304L889.636281427218 338.0806830309304L861.918295136469 338.0806830309304ZM1028.9923566283874 468.2156709863125L1028.9923566283874 468.2156709863125Q1013.4505834663483 468.2156709863125 1002.2320500219189 461.32037725949243Q991.0135165774894 454.4250835326724 984.9390911514813 442.00260991371874Q978.8920280021669 429.5801362947651 978.8920280021669 413.0806834484456L978.8920280021669 413.0806834484456Q978.8920280021669 396.58123060212614 984.9390911514813 383.9398587696227Q991.0135165774894 371.32584921381294 1001.8763404249005 364.211657273443Q1012.7665265490051 357.12482760976684 1027.3232577500698 357.12482760976684L1027.3232577500698 357.12482760976684Q1035.6961144183513 357.12482760976684 1043.9047974264704 359.91577983252733Q1052.0861181578957 362.70673205528783 1058.7898759478599 368.9726934181521Q1065.5209960145176 375.2386547810164 1069.4885261351083 385.52687081785905Q1073.483418532393 395.8150868547017 1073.483418532393 410.8369767595597L1073.483418532393 410.8369767595597L1073.483418532393 417.8417195931547L990.6578069804709 417.8417195931547L990.6578069804709 403.5586111590274L1056.6829806424425 403.5586111590274Q1056.6829806424425 394.4743352967089 1053.0985223955638 387.33278107964526Q1049.4867018719915 380.19122686258163 1042.8650309121085 376.0595230818283Q1036.2707222289196 371.9551815777687 1027.3232577500698 371.9551815777687L1027.3232577500698 371.9551815777687Q1017.4454758636331 371.9551815777687 1010.2765593698757 376.798304552559Q1003.1076428761182 381.66878980404306 999.2495618623022 389.4396763850625Q995.41884312518 397.21056296608197 995.41884312518 406.07594061485065L995.41884312518 406.07594061485065L995.41884312518 415.59801290426884Q995.41884312518 427.7742260329789 999.6326337360146 436.20180725464786Q1003.8737866235426 444.6293884763169 1011.4257749910123 449.0073527473137Q1018.977763358482 453.3853170183106 1028.9923566283874 453.3853170183106L1028.9923566283874 453.3853170183106Q1035.5045784814952 453.3853170183106 1040.7854978833852 451.52468220313693Q1046.066417285275 449.66404738796325 1049.8971360223975 445.9154154809222Q1053.7552170362133 442.19414585057484 1055.8621123416306 436.5848791283601L1055.8621123416306 436.5848791283601L1071.8143196540755 441.0722925061319Q1069.2969901982522 449.1715264074761 1063.332013879019 455.3006763868717Q1057.3943998364796 461.4298263662674 1048.6384712944857 464.82274867628996Q1039.9099050291857 468.2156709863125 1028.9923566283874 468.2156709863125ZM1115.1835282136383 401.3149044701415L1115.1835282136383 401.3149044701415L1115.1835282136383 465.9719642974266L1098.6840753673189 465.9719642974266L1098.6840753673189 322.7030835290539L1115.1835282136383 322.7030835290539L1115.1835282136383 375.2933793344039L1116.5790043250186 375.2933793344039Q1120.3549985087534 366.9752472195098 1127.9617114296104 362.0500374146383Q1135.5410620737737 357.12482760976684 1148.2097961829709 357.12482760976684L1148.2097961829709 357.12482760976684Q1159.1820691371568 357.12482760976684 1167.4454766986635 361.47542960407Q1175.7088842601702 365.85339387506684 1180.278384468023 374.85558290730415Q1184.8752469525698 383.8304096628477 1184.8752469525698 397.7030839465691L1184.8752469525698 397.7030839465691L1184.8752469525698 465.9719642974266L1168.3484318295566 465.9719642974266L1168.3484318295566 398.79757501431834Q1168.3484318295566 386.0193917983462 1161.7267608696739 378.98728668805745Q1155.132452186485 371.9551815777687 1143.4487600382618 371.9551815777687L1143.4487600382618 371.9551815777687Q1135.322163860224 371.9551815777687 1128.919391113891 375.37546616448503Q1122.516618367558 378.79575075120135 1118.8500732905982 385.3900594343904Q1115.1835282136383 391.9570058408857 1115.1835282136383 401.3149044701415ZM1215.083200422448 322.7030835290539L1231.5826532687677 322.7030835290539L1231.5826532687677 465.9719642974266L1215.083200422448 465.9719642974266L1215.083200422448 322.7030835290539ZM1306.8836387299139 468.2156709863125L1306.8836387299139 468.2156709863125Q1291.3418655678752 468.2156709863125 1280.1233321234456 461.32037725949243Q1268.8774364023225 454.4250835326724 1262.830373253008 442.00260991371874Q1256.7833101036936 429.5801362947651 1256.7833101036936 413.0806834484456L1256.7833101036936 413.0806834484456Q1256.7833101036936 396.58123060212614 1262.830373253008 383.9398587696227Q1268.8774364023225 371.32584921381294 1279.7676225264272 364.211657273443Q1290.630446373838 357.12482760976684 1305.1871775749028 357.12482760976684L1305.1871775749028 357.12482760976684Q1313.587396519878 357.12482760976684 1321.7687172513033 359.91577983252733Q1329.9500379827286 362.70673205528783 1336.6811580493866 368.9726934181521Q1343.3849158393505 375.2386547810164 1347.379808236635 385.52687081785905Q1351.37470063392 395.8150868547017 1351.37470063392 410.8369767595597L1351.37470063392 410.8369767595597L1351.37470063392 417.8417195931547L1268.5217268053038 417.8417195931547L1268.5217268053038 403.5586111590274L1334.574262743969 403.5586111590274Q1334.574262743969 394.4743352967089 1330.9624422203967 387.33278107964526Q1327.377983973518 380.19122686258163 1320.7563130136355 376.0595230818283Q1314.162004330446 371.9551815777687 1305.1871775749028 371.9551815777687L1305.1871775749028 371.9551815777687Q1295.3367579651597 371.9551815777687 1288.1678414714024 376.798304552559Q1280.998924977645 381.66878980404306 1277.140843963829 389.4396763850625Q1273.282762950013 397.21056296608197 1273.282762950013 406.07594061485065L1273.282762950013 406.07594061485065L1273.282762950013 415.59801290426884Q1273.282762950013 427.7742260329789 1277.5239158375412 436.20180725464786Q1281.7650687250693 444.6293884763169 1289.317057092539 449.0073527473137Q1296.8690454600087 453.3853170183106 1306.8836387299139 453.3853170183106L1306.8836387299139 453.3853170183106Q1313.368498306328 453.3853170183106 1318.649417708218 451.52468220313693Q1323.930337110108 449.66404738796325 1327.788418123924 445.9154154809222Q1331.64649913774 442.19414585057484 1333.7260321664635 436.5848791283601L1333.7260321664635 436.5848791283601L1349.6782394789084 441.0722925061319Q1347.1609100230853 449.1715264074761 1341.2232959805456 455.3006763868717Q1335.2856819380063 461.4298263662674 1326.5297533960124 464.82274867628996Q1317.7738248540186 468.2156709863125 1306.8836387299139 468.2156709863125ZM1393.074810315165 465.9719642974266L1376.5479951921516 465.9719642974266L1376.5479951921516 358.52030372114706L1392.5002025045965 358.52030372114706L1392.5002025045965 374.7461338005292L1393.6220558490395 374.7461338005292Q1396.5498194552688 366.75634900596 1404.2659814829008 361.80377692439475Q1411.954781233839 356.8238425661358 1421.6136649067257 356.8238425661358L1421.6136649067257 356.8238425661358Q1423.419575168512 356.8238425661358 1426.1558028378852 356.90592939621695Q1428.8920305072581 356.9606539496044 1430.2875066186384 357.12482760976684L1430.2875066186384 357.12482760976684L1430.2875066186384 373.8979032230236Q1429.4392760411326 373.7063672861675 1426.456787881516 373.24120858237404Q1423.5016619985931 372.77604987858064 1420.2181887953457 372.77604987858064L1420.2181887953457 372.77604987858064Q1412.365215384245 372.77604987858064 1406.263427681543 376.0321608051346Q1400.1342777021473 379.2882717316885 1396.6045440086561 384.97962528398443Q1393.074810315165 390.6983411129741 1393.074810315165 397.9767067135064L1393.074810315165 397.9767067135064L1393.074810315165 465.9719642974266Z " fill="#ffffff" transform="matrix(0.6117651275954463,0,0,0.6117651275954463,0,59.44436188215667)"/></g></svg>